<svg viewBox="0 0 346.5 68.1" xmlns="http://www.w3.org/2000/svg"><path d="m61.5 27.3-1.3-6.2 1.7-.6c1 2.3 3.1 5.2 6.8 5.2 2.3 0 4.7-1.3 4.7-4.3 0-5.7-12-4.5-12-11.7 0-4.3 3.3-6.4 7-6.4 2.5 0 3.9 1.1 4.4 1.7l.4-1.1h1.4l1.4 5.6-1.7.6c-1-2.2-3.1-4.5-6-4.5-2.6 0-3.8 1.5-3.8 3.4 0 5.2 12 3.8 12 11.7 0 5.3-4.5 7.2-8 7.2-2.1 0-3.7-.7-5.1-1.6l-.4 1.1h-1.5zm21.1 7.8c-1.1.5-2.1 0-2.3-.9l3.6-7-5.4-12c-.4-1-.6-1.2-2.1-1.6v-1.4h6.5v1.4l-1.7.4 4.1 9.1 4-9.2-1.7-.4v-1.4h5.4v1.4c-.9.2-1.6.5-2 1.5l-5.6 12.4zm20.7-19.3c-.1-.5-.7-1.1-1.4-1.1-1.1 0-2.2 1-3 1.9v8.9l1.8.4v1.4h-6v-1.3l1.4-.4v-10.2l-1.8-.5v-1.2c1.7-.3 2.6-.9 3.4-2l1.2.2-.2 3.2c.8-1.4 2.2-3.2 4.3-3.2 1 0 2.1.6 2.1 2 0 1.2-.9 1.9-1.8 1.9m11.1 7.7v-2.6l-3.5.7c-.9.2-2.4.7-2.4 2.3 0 1.1.8 2.1 2.4 2.1 1.8 0 3-1.2 3.5-2.5m4.8 2 .4.7c-.1.2-1.1 1.6-2.7 1.6s-2.3-.9-2.3-1.8c-.8 1.2-2.4 2-4.3 2-3 0-4.3-2-4.3-3.6 0-2.5 1.6-3.9 4.3-4.4l4.3-.8v-3.2c0-1.3-.9-2.2-2.3-2.2s-2 .6-2.6 1.2c.5 2.2-1.5 3.3-3.3 2.3.1-3.2 3.2-5.3 6.2-5.3 3.5 0 4.8 2 4.8 4.7v8.3c0 .6.4 1 .9 1 .3-.2.7-.4.9-.5m14-10.8c0 1.1-1 1.7-2 1.7-.6-1.4-1.5-2.4-3.4-2.4-2.7 0-4.8 2.2-4.8 6 0 3.2 2 5.2 4.8 5.2 2.1 0 3.6-1 4.6-2.3l.7.5c-.5 2.3-2.7 4.3-6.4 4.3-3.5 0-6.6-2.5-6.6-7 0-5.6 4.5-9 8.7-9 2.1.2 4.4 1.1 4.4 3m3.1-.5-1.8-.4v-1.4h4.6v10.6c0 1.5.7 2.3 2.1 2.3 1.1 0 3-.5 4.8-2.1v-9.1l-1.8-.4v-1.4h4.6v12.3h1.8v1.4c-1.2.3-2.4.8-3.4 1.6l-1.2-.2.2-2.6c-1.8 1.7-3.8 3-6 3s-3.9-1.5-3.9-3.5zm17.4 13.1h-.9l-.7-4.3 1.1-.2c.9 1.8 2.6 3.4 4.8 3.4 2 0 2.7-1.3 2.7-2.3 0-3.3-8.1-2.7-8.1-7.7 0-2.3 2-4.3 4.6-4.3 1.5 0 2.7.5 3.3 1l.1-.5h1.1l.7 3.8-1.1.2c-.5-1-1.6-2.9-3.9-2.9-1.6 0-2.2 1-2.2 1.8 0 3 8 2.3 8 7.5 0 2.9-2.6 4.9-5.4 4.9-1.5 0-3.3-.9-3.9-1.6zm14.5-8.7 6.9-.9c0-2.8-1.4-4-2.9-4-2.7 0-3.9 2.2-4 4.9m-.1 1.8c.1 2.7 2 4.9 4.4 4.9 2.2 0 3.7-1 4.8-2.6l.7.5c-.6 2.7-2.9 4.7-6.4 4.7s-6.5-2.5-6.5-7.1c0-6.2 3.7-8.9 7.2-8.9 3.2 0 5.9 1.9 5.9 6.5l-.6.9zm38.3-1.6c0 5.8-3.4 9.2-9.3 9.2s-9.3-3.4-9.3-9.2v-13l-1.8-.4v-1.5h7v1.6l-1.8.4v12.5c0 4.5 1.9 7.2 6.6 7.2 3.8 0 6.3-2.6 6.3-7v-12.8l-1.8-.4v-1.5h6.1v1.6l-1.8.4v12.9zm2.6 8.5v-1.3l1.4-.4v-10.2l-1.8-.5v-1.2c1.7-.3 2.6-.9 3.4-2l1.2.2-.2 3c1.8-1.7 3.8-3 6-3s3.9 1.5 3.9 3.5v10.2l1.8.4v1.4h-6v-1.4l1.4-.4v-8.8c0-1.5-.7-2.3-2.1-2.3-1.1 0-3 .5-4.8 2.1v9.1l1.8.4v1.4h-6zm21-21.6c1 0 1.8.8 1.8 1.8s-.8 1.8-1.8 1.8-1.8-.8-1.8-1.8.8-1.8 1.8-1.8m-3.2 21.6v-1.3l1.6-.4v-10.2l-1.8-.5v-1.2c1.7-.3 2.6-.9 3.4-2l1.2.2v13.7l1.6.4v1.4h-6zm6.4-14.9h6.5v1.4l-1.7.4 4.1 9.1 4-9.2-1.7-.4v-1.4h5.4v1.4c-.9.2-1.6.5-2 1.5l-5.6 12.4h-1.3l-5.6-12.4c-.5-1-.6-1.2-2.1-1.6zm19.5 6.2 6.9-.9c0-2.8-1.4-4-2.9-4-2.6 0-3.9 2.2-4 4.9m0 1.8c.1 2.7 2 4.9 4.4 4.9 2.2 0 3.7-1 4.8-2.6l.7.5c-.6 2.7-2.9 4.7-6.4 4.7s-6.5-2.5-6.5-7.1c0-6.2 3.7-8.9 7.2-8.9 3.2 0 5.9 1.9 5.9 6.5l-.6.9zm20.5-4.6c-.1-.5-.7-1.1-1.4-1.1-1.1 0-2.2 1-3 1.9v8.9l1.8.4v1.4h-6v-1.3l1.4-.4v-10.2l-1.8-.5v-1.2c1.7-.3 2.6-.9 3.4-2l1.2.2-.2 3.2c.8-1.4 2.2-3.2 4.3-3.2 1 0 2.1.6 2.1 2 .1 1.2-.8 1.9-1.8 1.9m4.2 11.5h-.9l-.7-4.3 1.1-.2c.9 1.8 2.6 3.4 4.8 3.4 2 0 2.7-1.3 2.7-2.3 0-3.3-8.1-2.7-8.1-7.7 0-2.3 2-4.3 4.6-4.3 1.5 0 2.7.5 3.3 1l.1-.5h1.1l.7 3.8-1.1.2c-.5-1-1.6-2.9-3.9-2.9-1.6 0-2.2 1-2.2 1.8 0 3 8 2.3 8 7.5 0 2.9-2.6 4.9-5.4 4.9-1.5 0-3.3-.9-3.9-1.6zm14.6-21.6c1 0 1.8.8 1.8 1.8s-.8 1.8-1.8 1.8-1.8-.8-1.8-1.8.8-1.8 1.8-1.8m-3.2 21.6v-1.3l1.6-.4v-10.2l-1.8-.5v-1.2c1.7-.3 2.6-.9 3.4-2l1.2.2v13.7l1.6.4v1.4h-6zm9-2.6v-10.5h-2.3v-1.4c2-.4 3.2-2.1 3.9-4.1l1.2.2v3.4h3.9v1.8h-3.9v9.9c0 1.1.5 1.7 1.4 1.7.7 0 1.3-.4 1.7-.9l.7.6c-.4 1.1-1.7 2.3-3.4 2.3-1.8.2-3.2-.9-3.2-3" fill="#f76900"/><path d="m308.7 35.1c-1.1.5-2.1 0-2.3-.9l3.6-7-5.4-12c-.4-1-1.3-1.1-2.3-1.1h-3v-1.8h9.7v1.4l-1.7.4 4.1 9.1 4-9.2-1.7-.4v-1.4h5.4v1.4c-.9.2-1.6.5-2 1.5l-5.6 12.4z" fill="#f76900"/><path d="m60.3 50.2c0-6.1 4.6-10.2 9.8-10.2 3.2 0 5.3 1.3 6.2 2.1l.3-.8h1l1.2 4.6-1.2.5c-.9-1.7-3.1-4.3-7.1-4.3-3.7 0-7.4 2.1-7.4 7.5 0 5.2 3.5 8.5 7.6 8.5 3.5 0 6.2-2.6 7.2-4.8l1.3.5-.8 3.9c-.3 0-.6 0-1 .2-1.2.4-3.2 2.2-7.1 2.2-5.8-.1-10-3.9-10-9.9zm33.1 3.1c0 4-3 6.7-6.4 6.7s-6.1-2.5-6.1-6.4c0-4 3-6.7 6.4-6.7s6.1 2.5 6.1 6.4zm-2.4.5c0-3.4-1.8-5.4-3.9-5.4-2 0-3.7 1.4-3.7 4.6 0 3.4 1.8 5.4 3.9 5.4 2 0 3.7-1.3 3.7-4.6zm3.5 5.8v-1.1l1.3-.3v-15l-1.5-.4v-1c1.4-.2 2.1-.7 2.8-1.7l1 .2v17.9l1.3.3v1.1zm6.3 0v-1.1l1.3-.3v-15l-1.5-.4v-1c1.4-.2 2.1-.7 2.8-1.7l1 .2v17.9l1.3.3v1.1zm8.4-5.7c.1 2.2 1.6 4 3.6 4 1.8 0 3-.8 3.9-2.1l.6.4c-.5 2.2-2.4 3.8-5.2 3.8-2.9 0-5.3-2.1-5.3-5.8 0-5.1 3-7.3 5.9-7.3 2.6 0 4.8 1.6 4.8 5.3l-.5.7zm.1-1.5 5.7-.8c0-2.3-1.2-3.2-2.4-3.2-2.2 0-3.2 1.8-3.3 4zm11.6 7.8c-.8-.3-1.3-1.1-1.3-1.7 0-1.1 1-1.8 2.1-2.6-1.6-.7-2.8-2.1-2.8-4.2 0-3 2.5-4.7 5-4.7 1.3 0 2.6.4 3.5 1.3l2.1-1.3c.8.3 1.1 1.2.7 2.1l-1.8.4c.3.6.5 1.3.5 2.1 0 3-2.5 4.7-5 4.7-.3 0-.7 0-1.1-.1-.7.5-1 .9-1 1.3 0 .3.2.6 1 .7l3.9.6c2.3.3 3.6 1.3 3.6 3 0 2.4-2.3 4.6-6.7 4.6-2.5 0-5-.8-5-3.1-.1-1.5 1.1-2.3 2.3-3.1zm1.3.3c-1.1.8-1.5 1.5-1.5 2.2 0 1.4 1.1 2.1 3.2 2.1 2.7 0 3.9-1.2 3.9-2.2 0-.8-.4-1.4-1.9-1.6zm2-5.7c1.3 0 2.4-.9 2.4-3 0-2.5-1.3-3.4-2.8-3.4-1.3 0-2.4.9-2.4 3-.1 2.5 1.3 3.4 2.8 3.4zm9.1-.9c.1 2.2 1.6 4 3.6 4 1.8 0 3-.8 3.9-2.1l.6.4c-.5 2.2-2.4 3.8-5.2 3.8-2.9 0-5.3-2.1-5.3-5.8 0-5.1 3-7.3 5.9-7.3 2.6 0 4.8 1.6 4.8 5.3l-.5.7zm.1-1.5 5.7-.8c0-2.3-1.2-3.2-2.4-3.2-2.2 0-3.2 1.8-3.3 4zm26.9.9c0 4-3 6.7-6.4 6.7s-6.1-2.5-6.1-6.4c0-4 3-6.7 6.4-6.7s6.1 2.5 6.1 6.4zm-2.4.5c0-3.4-1.8-5.4-3.9-5.4-2 0-3.7 1.4-3.7 4.6 0 3.4 1.8 5.4 3.9 5.4 2 0 3.7-1.3 3.7-4.6zm12.7-12.1c0 1-.8 1.5-1.6 1.5-.1-.7-.6-1.5-1.6-1.5-.9 0-2.1.7-2.1 3v2.8h3.2v1.5h-3.2v9.3l1.9.3v1.1h-5.5v-1.1l1.3-.3v-9.3h-2v-1.1l1.9-.3v-1.5c0-3.7 2.3-5.9 5.1-5.9 1.2-.2 2.6.3 2.6 1.5zm20.1 15c.4 1 .9 1.4 1.9 1.5v1.3h-5.9v-1.3l1.5-.3-1.6-4h-8.1l-1.6 4 1.5.3v1.3h-4.9v-1.3c1-.1 1.5-.5 1.9-1.5l7-16.7h1.3zm-11.6-4.5h6.7l-3.4-8.3zm21.9-2c-.1-.4-.6-.9-1.2-.9-.9 0-1.8.8-2.4 1.5v7.3l1.5.3v1.1h-4.9v-1.1l1.2-.3v-8.3l-1.5-.4v-1c1.4-.2 2.1-.7 2.8-1.7l1 .2-.1 2.6c.7-1.2 1.8-2.6 3.5-2.6.8 0 1.7.5 1.7 1.6-.1 1-.9 1.7-1.6 1.7zm4.1 7.2v-8.6h-1.9v-1.1c1.6-.3 2.6-1.7 3.2-3.3l1 .2v2.8h3.2v1.5h-3.2v8.1c0 .9.4 1.4 1.2 1.4.6 0 1.1-.3 1.4-.7l.6.5c-.3.9-1.4 1.9-2.8 1.9-1.6-.1-2.7-1-2.7-2.7zm7.8 2.2h-.7l-.6-3.5.9-.2c.7 1.5 2.1 2.8 3.9 2.8 1.6 0 2.2-1.1 2.2-1.9 0-2.7-6.6-2.2-6.6-6.3 0-1.9 1.7-3.5 3.8-3.5 1.2 0 2.2.4 2.7.8l.1-.4h.9l.6 3.1-.9.2c-.4-.8-1.3-2.3-3.2-2.3-1.3 0-1.8.8-1.8 1.5 0 2.5 6.5 1.9 6.5 6.1 0 2.4-2.1 4-4.4 4-1.2 0-2.7-.7-3.2-1.3zm29.1 0c-.4-1-.8-1.8-1.3-2.7-2.1 2.2-4.5 3.1-6.9 3.1-4.3 0-7.1-2.5-7.1-5.6s2.1-5 4.3-6c-1.2-.9-2.3-2.1-2.3-3.9 0-2.5 2.2-4.6 5.1-4.6 2.7 0 4.8 1.8 4.8 4.3 0 1.6-1.4 3.3-3.2 4.1.4.2 1 .5 1.5.7 1.9 1.1 3.3 2.5 4.6 4.2 1-1.7 1.9-4 2.6-7.1l-1.5-.3v-1.2h4.6v1.2l-1.5.3c-.7 3.7-1.9 6.5-3.2 8.6.1.2.3.4.3.6 1.5 2.6 2.4 3.1 3.3 3.1v1.1h-4.1zm-2.1-4.3c-1.2-2-2.5-3.6-4.2-4.5-1-.5-2.2-1-3.5-1.7-1.7.8-2.7 2.4-2.7 4.5 0 2.8 2.5 4.2 4.9 4.2 1.6 0 3.6-.4 5.5-2.5zm-5.7-7.6c1.5-.5 2.4-2.1 2.4-3.2 0-1.8-1.2-3.1-2.9-3.1-1.5 0-2.8 1.2-2.8 2.6 0 1.7.8 2.4 3.3 3.7zm20.2 11.9-1.1-5 1.4-.5c.8 1.9 2.5 4.2 5.5 4.2 1.9 0 3.8-1 3.8-3.5 0-4.6-9.8-3.7-9.8-9.5 0-3.5 2.7-5.2 5.7-5.2 2.1 0 3.2.9 3.6 1.4l.3-.9h1.2l1.2 4.6-1.4.5c-.8-1.8-2.5-3.7-4.9-3.7-2.1 0-3.1 1.2-3.1 2.8 0 4.2 9.8 3.1 9.8 9.5 0 4.3-3.7 5.9-6.6 5.9-1.7 0-3-.6-4.2-1.3l-.3.9h-1.1zm24.6-10.3c0 .9-.8 1.4-1.7 1.4-.5-1.2-1.2-1.9-2.8-1.9-2.2 0-3.9 1.8-3.9 4.9 0 2.6 1.7 4.3 3.9 4.3 1.7 0 2.9-.8 3.7-1.9l.6.4c-.4 1.9-2.2 3.5-5.3 3.5-2.9 0-5.4-2-5.4-5.7 0-4.6 3.7-7.3 7.1-7.3 1.9-.1 3.8.7 3.8 2.3zm1.4 10.3v-1.1l1.3-.3v-8.3l-1.5-.4v-1c1.4-.2 2.1-.7 2.8-1.7l1 .2v11.2l1.3.3v1.1zm2.6-17.7c.8 0 1.5.6 1.5 1.5s-.6 1.5-1.5 1.5c-.8 0-1.5-.6-1.5-1.5s.7-1.5 1.5-1.5zm5.8 12c.1 2.2 1.6 4 3.6 4 1.8 0 3-.8 3.9-2.1l.6.4c-.5 2.2-2.4 3.8-5.2 3.8-2.9 0-5.3-2.1-5.3-5.8 0-5.1 3-7.3 5.9-7.3 2.6 0 4.8 1.6 4.8 5.3l-.5.7zm0-1.5 5.7-.8c0-2.3-1.2-3.2-2.4-3.2-2.2 0-3.2 1.8-3.3 4zm9.7 7.2v-1.1l1.2-.3v-8.3l-1.5-.4v-1c1.4-.2 2.1-.7 2.8-1.7l1 .2-.1 2.4c1.5-1.4 3.1-2.4 4.9-2.4s3.2 1.2 3.2 2.9v8.3l1.5.3v1.1h-4.9v-1.1l1.2-.3v-7.2c0-1.2-.6-1.9-1.7-1.9-.9 0-2.4.4-3.9 1.7v7.4l1.5.3v1.1zm24.5-10.3c0 .9-.8 1.4-1.7 1.4-.5-1.2-1.2-1.9-2.8-1.9-2.2 0-3.9 1.8-3.9 4.9 0 2.6 1.7 4.3 3.9 4.3 1.7 0 2.9-.8 3.7-1.9l.6.4c-.4 1.9-2.2 3.5-5.3 3.5-2.9 0-5.4-2-5.4-5.7 0-4.6 3.7-7.3 7.1-7.3 1.9-.1 3.8.7 3.8 2.3zm3.6 4.6c.1 2.2 1.6 4 3.6 4 1.8 0 3-.8 3.9-2.1l.6.4c-.5 2.2-2.4 3.8-5.2 3.8-2.9 0-5.3-2.1-5.3-5.8 0-5.1 3-7.3 5.9-7.3 2.6 0 4.8 1.6 4.8 5.3l-.5.7zm0-1.5 5.7-.8c0-2.3-1.2-3.2-2.4-3.2-2.2 0-3.2 1.8-3.3 4zm10.8 7.2h-.7l-.6-3.5.9-.2c.7 1.5 2.1 2.8 3.9 2.8 1.6 0 2.2-1.1 2.2-1.9 0-2.7-6.6-2.2-6.6-6.3 0-1.9 1.7-3.5 3.8-3.5 1.2 0 2.2.4 2.7.8l.1-.4h.9l.6 3.1-.9.2c-.4-.8-1.3-2.3-3.2-2.3-1.3 0-1.8.8-1.8 1.5 0 2.5 6.5 1.9 6.5 6.1 0 2.4-2.1 4-4.4 4-1.2 0-2.7-.7-3.2-1.3z" fill="#000e54"/><path d="m30.3 20.4h14.9v-10.9c-.2-.2-8.3-8-8.6-8.2h-27c-.2.2-8.1 8-8.3 8.2v20c.2.2 7.7 7.8 8 8.1h20.9v11.6h-13.7v-6.6h-15.1v10.9c.2.2 8.1 8 8.3 8.2h27c.2-.2 8.3-8 8.6-8.2v-20c-.2-.2-7.7-7.8-8-8.1h-20.8v-11.6h13.8z" fill="#f76900"/></svg>