<svg height="59" viewBox="0 0 317 59" width="317" xmlns="http://www.w3.org/2000/svg"><path d="m3.422 20.512h-2.192c-.653 0-1.182-.529-1.182-1.182s.529-1.182 1.182-1.182h2.192c.653 0 1.182.529 1.182 1.182s-.529 1.182-1.182 1.182" fill="none"/><g fill="#ec5033"><path d="m3.422 20.512h-2.192c-.653 0-1.182-.529-1.182-1.182s.529-1.182 1.182-1.182h2.192c.653 0 1.182.529 1.182 1.182s-.529 1.182-1.182 1.182"/><path d="m37.599 20.512h-2.192c-.653 0-1.183-.529-1.183-1.183 0-.653.53-1.182 1.183-1.182h2.193c.64.019 1.149.543 1.149 1.182 0 .64-.509 1.164-1.149 1.183"/><path d="m35.231 18.183v9.105c0 8.674-7.058 15.727-15.731 15.727-8.674 0-15.732-7.053-15.732-15.727v-9.105h-2.648v9.105c0 10.134 8.245 18.377 18.38 18.377 10.134 0 18.38-8.242 18.38-18.377v-9.105z"/><path d="m17.091 52.62h4.817v-7.115h-4.817z"/><path d="m12.16 55.758c0-.984.797-1.78 1.78-1.78h11.12c.983 0 1.78.797 1.78 1.78s-.797 1.78-1.78 1.78h-11.12c-.472 0-.925-.188-1.259-.521-.333-.334-.521-.787-.521-1.259"/><path d="m32 18.554v-3.351h-6.342c-.806 0-1.513-.613-1.534-1.408-.008-.393.144-.772.42-1.051.276-.28.653-.436 1.046-.433h6.41c-.003-6.8-5.599-12.311-12.5-12.311s-12.497 5.512-12.5 12.311h6.118c.803 0 1.504.61 1.528 1.402.009.394-.142.775-.418 1.056-.277.28-.655.437-1.049.434h-6.179v3.351h6.118c.803 0 1.504.61 1.528 1.402.009.394-.142.775-.418 1.056-.277.28-.655.437-1.049.434h-6.179v3.35h6.118c.803 0 1.504.61 1.528 1.402.009.394-.142.775-.418 1.056-.277.28-.655.437-1.049.434h-6.179c.003 6.801 5.599 12.312 12.5 12.312s12.497-5.512 12.5-12.311h-6.41c-.81 0-1.466-.648-1.466-1.446 0-.799.657-1.446 1.467-1.446h6.409v-3.352h-6.342c-.806 0-1.513-.612-1.534-1.407-.008-.393.144-.772.42-1.051.276-.28.653-.436 1.046-.433z"/></g><text fill="#fff" font-family="Inter-Bold, Inter" font-size="49.857" transform="translate(40 -9)" x="1" y="48">MAPPING</text><text fill="#fff" font-family="Inter-Bold, Inter" font-size="19" transform="translate(43 37)" x="1" y="18">the doctrine of discovery</text></svg>