<svg height="59" viewBox="0 0 317 59" width="317" xmlns="http://www.w3.org/2000/svg" xmlns:xlink="http://www.w3.org/1999/xlink"><mask id="a" fill="#fff"><path d="m3.599 2.512h-2.192a1.182 1.182 0 1 1 0-2.365h2.193a1.183 1.183 0 0 1 0 2.365" fill="#fff" fill-rule="evenodd"/></mask><mask id="b" fill="#fff"><path d="m34.231.183v9.105c0 8.674-7.058 15.727-15.731 15.727-8.674 0-15.732-7.053-15.732-15.727v-9.105h-2.648v9.105c0 10.134 8.245 18.377 18.38 18.377 10.134 0 18.38-8.242 18.38-18.377v-9.105z" fill="#fff" fill-rule="evenodd"/></mask><mask id="c" fill="#fff"><path d="m.16 2.258c0-.984.797-1.78 1.78-1.78h11.12a1.78 1.78 0 0 1 0 3.56h-11.12a1.78 1.78 0 0 1 -1.78-1.78" fill="#fff" fill-rule="evenodd"/></mask><g fill="none" fill-rule="evenodd"><path d="m3.422 20.512h-2.192a1.182 1.182 0 1 1 0-2.364h2.192a1.182 1.182 0 0 1 0 2.364"/><g fill="#ec5033"><path d="m3.422 20.512h-2.192a1.182 1.182 0 1 1 0-2.364h2.192a1.182 1.182 0 0 1 0 2.364"/><path d="m3.599 2.512h-2.192a1.182 1.182 0 1 1 0-2.365h2.193a1.183 1.183 0 0 1 0 2.365" mask="url(#a)" transform="translate(34 18)"/><path d="m34.231.183v9.105c0 8.674-7.058 15.727-15.731 15.727-8.674 0-15.732-7.053-15.732-15.727v-9.105h-2.648v9.105c0 10.134 8.245 18.377 18.38 18.377 10.134 0 18.38-8.242 18.38-18.377v-9.105z" mask="url(#b)" transform="translate(1 18)"/><path d="m17.091 52.62h4.817v-7.115h-4.817z"/><path d="m.16 2.258c0-.984.797-1.78 1.78-1.78h11.12a1.78 1.78 0 0 1 0 3.56h-11.12a1.78 1.78 0 0 1 -1.78-1.78" mask="url(#c)" transform="translate(12 53.5)"/><path d="m32 18.554v-3.351h-6.342c-.806 0-1.513-.613-1.534-1.408a1.456 1.456 0 0 1 1.466-1.484h6.41c-.003-6.8-5.599-12.311-12.5-12.311s-12.497 5.512-12.5 12.311h6.118c.803 0 1.504.61 1.528 1.402a1.456 1.456 0 0 1 -1.467 1.49h-6.179v3.351h6.118c.803 0 1.504.61 1.528 1.402a1.456 1.456 0 0 1 -1.467 1.49h-6.179v3.35h6.118c.803 0 1.504.61 1.528 1.402a1.456 1.456 0 0 1 -1.467 1.49h-6.179c.003 6.801 5.599 12.312 12.5 12.312s12.497-5.512 12.5-12.311h-6.41c-.81 0-1.466-.648-1.466-1.446 0-.799.657-1.446 1.467-1.446h6.409v-3.352h-6.342c-.806 0-1.513-.612-1.534-1.407a1.456 1.456 0 0 1 1.466-1.484z"/></g><path d="m57.64 44v-11.904h5.088c2.656 0 4.912-.472 6.768-1.416s3.256-2.24 4.2-3.888 1.416-3.528 1.416-5.64c0-3.392-1.056-6.088-3.168-8.088s-5.184-3-9.216-3h-13.296v33.936zm4.176-18.48h-4.176v-8.832h4.176c3.296 0 4.944 1.488 4.944 4.464 0 2.912-1.648 4.368-4.944 4.368zm31.456 18.816c3.168 0 6.056-.744 8.664-2.232s4.672-3.56 6.192-6.216 2.28-5.648 2.28-8.976-.752-6.312-2.256-8.952-3.56-4.704-6.168-6.192-5.512-2.232-8.712-2.232c-3.168 0-6.056.744-8.664 2.232s-4.672 3.552-6.192 6.192-2.28 5.624-2.28 8.952.76 6.32 2.28 8.976 3.584 4.728 6.192 6.216 5.496 2.232 8.664 2.232zm0-7.68c-2.688 0-4.824-.88-6.408-2.64s-2.376-4.128-2.376-7.104c0-3.008.792-5.384 2.376-7.128s3.72-2.616 6.408-2.616 4.824.88 6.408 2.64 2.376 4.128 2.376 7.104-.8 5.344-2.4 7.104-3.728 2.64-6.384 2.64zm32.56 7.344c3.616 0 6.76-.72 9.432-2.16s4.72-3.448 6.144-6.024 2.136-5.528 2.136-8.856-.712-6.272-2.136-8.832-3.464-4.544-6.12-5.952-5.808-2.112-9.456-2.112h-12.816v33.936zm-.72-7.344h-3.888v-19.392h3.888c3.2 0 5.688.848 7.464 2.544s2.664 4.08 2.664 7.152-.888 5.456-2.664 7.152-4.264 2.544-7.464 2.544zm36.592 7.632c4.32 0 7.896-1.144 10.728-3.432s4.664-5.352 5.496-9.192h-8.688c-.64 1.536-1.624 2.752-2.952 3.648s-2.904 1.344-4.728 1.344c-2.4 0-4.336-.872-5.808-2.616s-2.208-4.088-2.208-7.032.736-5.296 2.208-7.056 3.408-2.64 5.808-2.64c1.824 0 3.4.448 4.728 1.344s2.312 2.128 2.952 3.696h8.688c-.832-3.872-2.664-6.944-5.496-9.216s-6.408-3.408-10.728-3.408c-3.296 0-6.192.728-8.688 2.184s-4.424 3.496-5.784 6.12-2.04 5.616-2.04 8.976.68 6.352 2.04 8.976 3.288 4.664 5.784 6.12 5.392 2.184 8.688 2.184zm25.024-.288 2.112-6.192h12.72l2.112 6.192h8.736l-12.432-33.696h-9.456l-12.432 33.696zm12.72-12.432h-8.496l4.272-12.48zm26.656 12.768c2.528 0 4.68-.448 6.456-1.344s3.12-2.096 4.032-3.6 1.368-3.152 1.368-4.944c0-2.208-.496-4-1.488-5.376s-2.176-2.424-3.552-3.144-3.152-1.448-5.328-2.184c-1.504-.544-2.656-.992-3.456-1.344s-1.464-.808-1.992-1.368-.792-1.24-.792-2.04c0-.992.296-1.744.888-2.256s1.368-.768 2.328-.768c1.12 0 2.008.328 2.664.984s1.064 1.544 1.224 2.664h8.88c-.288-3.136-1.544-5.6-3.768-7.392s-5.224-2.688-9-2.688c-2.336 0-4.408.392-6.216 1.176s-3.224 1.912-4.248 3.384-1.536 3.216-1.536 5.232c0 2.176.488 3.944 1.464 5.304s2.144 2.384 3.504 3.072 3.112 1.4 5.256 2.136c1.472.512 2.624.952 3.456 1.32s1.528.84 2.088 1.416.84 1.296.84 2.16c0 .96-.304 1.728-.912 2.304s-1.44.864-2.496.864c-1.216 0-2.216-.368-3-1.104s-1.24-1.744-1.368-3.024h-8.736c.224 3.328 1.568 5.92 4.032 7.776s5.6 2.784 9.408 2.784zm29.584-.336v-27.408h9.216v-6.528h-26.592v6.528h9.12v27.408zm31.792 0v-6.576h-12.912v-7.536h11.472v-6.192h-11.472v-7.104h12.912v-6.528h-21.12v33.936zm10.864 0v-12.816h1.872l7.344 12.816h9.072l-8.064-13.344c2.592-.64 4.568-1.824 5.928-3.552s2.04-3.824 2.04-6.288c0-2.08-.464-3.928-1.392-5.544s-2.32-2.888-4.176-3.816-4.128-1.392-6.816-1.392h-14.016v33.936zm5.088-18.432h-5.088v-8.592h5.088c1.6 0 2.792.384 3.576 1.152s1.176 1.824 1.176 3.168c0 1.408-.384 2.472-1.152 3.192s-1.968 1.08-3.6 1.08z" fill="#e2e2e2" fill-rule="nonzero"/></g></svg>