<svg fill="none" height="50" viewBox="0 0 184 50" width="184" xmlns="http://www.w3.org/2000/svg" xmlns:xlink="http://www.w3.org/1999/xlink"><clipPath id="a"><path d="m0 .925h184v48.604h-184z"/></clipPath><g clip-path="url(#a)" fill="#fff"><path d="m109.185 21.755h4.86v17.358h-4.86v-2.257c-1.736 2.604-3.993 2.778-5.381 2.778-5.381 0-8.853-4.166-8.853-9.2 0-5.208 3.472-9.2 8.506-9.2 1.388 0 3.992.173 5.554 2.777v-2.256zm-9.027 8.679c0 2.777 1.91 4.86 4.861 4.86 2.777 0 4.86-2.083 4.86-4.86s-1.909-4.86-4.86-4.86c-2.778 0-4.861 2.082-4.861 4.86zm23.434-4.513v13.192h-4.86v-13.192h-1.909v-4.166h1.909v-5.902h4.86v5.902h3.299v4.166zm14.755 0c-1.215-1.042-2.256-1.215-2.777-1.215-1.215 0-1.91.52-1.91 1.388 0 .521.174 1.042 1.563 1.563l1.215.347c1.388.52 3.471 1.041 4.339 2.43.521.694.868 1.736.868 2.95 0 1.563-.52 3.125-1.909 4.34-1.389 1.216-3.125 1.91-5.208 1.91-3.645 0-5.554-1.736-6.77-2.951l2.604-2.951c1.042 1.041 2.43 2.083 3.819 2.083s2.43-.694 2.43-1.91c0-1.04-.868-1.562-1.562-1.735l-1.041-.347c-1.216-.521-2.604-1.042-3.646-2.083-.868-.868-1.388-1.91-1.388-3.299 0-1.735.867-3.124 1.735-3.992 1.389-1.042 3.125-1.215 4.514-1.215 1.215 0 3.298.173 5.554 1.91zm10.589-1.91c1.736-2.43 4.166-2.777 5.555-2.777 5.034 0 8.505 3.992 8.505 9.2 0 5.207-3.471 9.2-8.679 9.2-1.042 0-3.645-.174-5.555-2.778v2.257h-4.687v-29.162h4.861zm-.521 6.423c0 2.777 1.91 4.86 4.86 4.86 2.778 0 4.861-2.083 4.861-4.86s-1.91-4.86-4.861-4.86c-2.95 0-4.86 2.082-4.86 4.86zm22.566 6.075-8.332-14.754h5.728l5.381 9.894 4.861-9.894h5.555l-13.887 26.558h-5.555zm-77.245-11.803h-12.151v4.86h6.422c-1.041 3.298-3.471 5.555-7.984 5.555-5.034 0-8.68-4.166-8.68-9.2s3.472-9.374 8.506-9.374c2.777 0 5.555 1.389 7.29 3.645l3.993-2.603c-2.604-3.646-6.77-5.729-11.283-5.729-7.638 0-13.887 6.25-13.887 14.06 0 7.812 5.902 14.061 13.887 14.061s13.887-6.249 13.887-14.06c.173-.521 0-.868 0-1.215zm-69.434-23.781c-13.366 0-24.302 10.935-24.302 24.301 0 13.367 10.936 24.302 24.302 24.302s24.302-10.935 24.302-24.302c0-13.366-10.936-24.301-24.302-24.301zm-13.54 37.841c-3.645-3.645-5.554-8.506-5.554-13.192l18.92 18.747c-4.86-.174-9.72-1.91-13.366-5.555zm17.706 5.034-22.74-22.74c1.91-8.505 9.547-14.928 18.574-14.928 6.422 0 11.977 3.125 15.449 7.811l-2.604 2.257c-2.95-3.992-7.638-6.596-12.845-6.596-6.77 0-12.498 4.34-14.755 10.415l19.963 19.961c5.034-1.736 8.853-6.075 10.068-11.283h-8.332v-3.472h12.151c0 9.027-6.422 16.665-14.928 18.574z"/></g></svg>