<svg height="88" viewBox="0 0 112 88" width="112" xmlns="http://www.w3.org/2000/svg"><path d="m72 8h-32l-24 10h-16v8h16l24-14h32l24 14h16v-8h-16zm0-8h-32l-24 2h-16v8h16l24-6h32l24 6h16v-8h-16zm0 84h-32l-24-6h-16v8h16l24 2h32l24-2h16v-8h-16zm0-8h-32l-24-14h-16v8h16l24 10h32l24-10h16v-8h-16zm0-12h-32l-24-10h-16v4h16l24 14h32l24-14h16v-4h-16zm0-16h-32l-24-2h-16v4h16l24 6h32l24-6h16v-4h-16zm0-16h-32l-24 6h-16v4h16l24-2h32l24 2h16v-4h-16zm0-16h-32l-24 14h-16v4h16l24-10h32l24 10h16v-4h-16z" fill="#2c343c" fill-rule="evenodd" opacity=".4"/></svg>